<?xml version="1.0" encoding="UTF-8" standalone="no"?>
<svg
   xmlns:dc="http://purl.org/dc/elements/1.1/"
   xmlns:cc="http://creativecommons.org/ns#"
   xmlns:rdf="http://www.w3.org/1999/02/22-rdf-syntax-ns#"
   xmlns:svg="http://www.w3.org/2000/svg"
   xmlns="http://www.w3.org/2000/svg"
   height="354.3045"
   width="493.5947"
   xml:space="preserve"
   viewBox="0 0 493.59469 354.3045"
   y="0px"
   x="0px"
   version="1.1">
<path
   style="fill:#ffffff"
   d="m 487.07701,13.75 c -6.435,-8.7719998 -16.579,-13.7509998494 -27.136,-13.7499998493964 -2.73,0 -5.488,0.3329999993964 -8.216,1.0200000493964 L 25.442009,108.326 c -13.192,3.319 -23.0860002,14.255 -25.07900022,27.71 -1.98899998,13.456 4.31500002,26.787 15.97900022,33.784 l 90.143001,54.086 v 118.643 c 0,4.49 2.559,8.588 6.592,10.561 4.034,1.972 8.84,1.474 12.383,-1.284 l 84.547,-65.805 69.455,41.672 c 5.419,3.252 11.388,4.801 17.284,4.801 11.308,0 22.341,-5.699 28.694,-16.023 l 163.162,-265.178 c 7.176,-11.66 6.572,-26.504 -1.525,-37.543 z m -192.347,276.7 -105.688,-63.415 107.223,-92.395 c 1.502,-1.294 1.854,-3.48 0.834,-5.179 -1.018,-1.699 -3.112,-2.419 -4.96,-1.704 L 128.81801,190.902 49.493009,143.305 446.80601,43.292 Z" />
</svg>
