<?xml version="1.0" encoding="UTF-8" standalone="no"?>
<svg
   xmlns:dc="http://purl.org/dc/elements/1.1/"
   xmlns:cc="http://creativecommons.org/ns#"
   xmlns:rdf="http://www.w3.org/1999/02/22-rdf-syntax-ns#"
   xmlns:svg="http://www.w3.org/2000/svg"
   xmlns="http://www.w3.org/2000/svg"
   version="1.1"
   viewBox="0 0 26.458332 19.413273"
   height="19.413273mm"
   width="26.458332mm">
  <g
     transform="translate(-17.008924,-18.502374)">
    <g
       transform="matrix(0.26458333,0,0,0.26458333,17.782301,21.075182)">
      <path
         style="fill:#ffffff"
         d="m 29.221,36.085 c 0,-15.61 16.253,-28.314 36.232,-28.314 5.447,0 10.613,0.947 15.254,2.644 C 74.014,-1.436 58.609,-9.724 40.669,-9.724 c -24.077,0 -43.592,14.926 -43.592,33.339 0,9.31 4.993,17.72 13.032,23.767 l -3.183,15.47 14.345,-9.385 c 5.846,2.231 12.427,3.487 19.398,3.487 0.108,0 0.216,-0.009 0.323,-0.009 C 33.764,51.77 29.221,44.336 29.221,36.085 Z" />
      <path
         style="fill:#ffffff"
         d="m 97.077,36.085 c 0,-12.788 -13.951,-23.195 -31.108,-23.195 -17.157,0 -31.117,10.407 -31.117,23.195 0,12.789 13.96,23.195 31.117,23.195 3.91,0 7.74,-0.553 11.392,-1.631 l 9.947,6 -1.472,-9.778 C 92.989,49.427 97.077,42.995 97.077,36.085 Z" />
    </g>
  </g>
</svg>
